# xmcd
#
# Track frame offsets:
# 150
# 9785
# 23975
# 37140
# 46002
# 58400
# 73762
# 92467
# 108225
# 127105
# 141775
# 161672
# 177195
# 189807
# 204957
# 223117
#
# Disc length: 3220 seconds
#
#
# Revision: 0
# Processed by: cddbd v1.5.2PL0 Copyright (c) Steve Scherf et al.
# Submitted via: FreeRIP 2.51 
#
DISCID=db0c9210
DTITLE=Louisiana Red - The Best of Louisiana Red
DYEAR=1995
DGENRE=Blues
TTITLE0=I Am Louisiana Red
TTITLE1=Rolling Stone
TTITLE2=Country Playboy
TTITLE3=You Don't Have to Go
TTITLE4=Mean Old Frisco
TTITLE5=Story of Louisiana Red
TTITLE6=The Same Thing
TTITLE7=Freight Train to Ride
TTITLE8=Where is My Friend
TTITLE9=Red's Dream
TTITLE10=Red's New Dream
TTITLE11=Early in the Morning
TTITLE12=Who Dat?
TTITLE13=You're Gonna Need Me Baby
TTITLE14=Let These Blues
TTITLE15=I'm Goin' Down South
EXTD=
EXTT0=
EXTT1=
EXTT2=
EXTT3=
EXTT4=
EXTT5=
EXTT6=
EXTT7=
EXTT8=
EXTT9=
EXTT10=
EXTT11=
EXTT12=
EXTT13=
EXTT14=
EXTT15=
PLAYORDER=
